<svg version="1.1" xmlns="http://www.w3.org/2000/svg" viewBox="0 0 1320.46484375 705.27734375">
  <!-- svg-source:excalidraw -->
  <defs>
    <style>
      @font-face {
        font-family: "Virgil";
        src: url("https://excalidraw.com/FG_Virgil.woff2");
      }
      @font-face {
        font-family: "Cascadia";
        src: url("https://excalidraw.com/Cascadia.woff2");
      }
    </style>
  </defs>
  <rect x="0" y="0" width="1320.46484375" height="705.27734375" fill="#f4fce3"></rect><g transform="translate(10 53.58203125) rotate(0 103.095703125 38.39453125)"><path d="M2.2042585180595675 -0.8750966216218987 C50.608868286249496 -0.682351956645709, 100.71801163968728 1.448736593701451, 208.07540431608626 -1.5366190750315993 M1.2851925387113539 0.1648677295177946 C72.77502399369011 -0.3177374126247243, 143.37514868130611 -0.47268377426997343, 207.33955176052947 0.236134330726399 M209.37377911433578 0.3205343522131443 C205.38629916414777 21.431188770899464, 208.1212636540846 48.76364876209555, 208.95184152945876 77.76043725386262 M205.78398323245347 1.2835200112313032 C207.45783832747563 26.881671157324305, 204.8855554767333 49.6155931011468, 206.6334798950702 76.1259836833924 M202.79750849987462 74.4271533228087 C138.1903567552342 74.64736359347687, 69.67418589315722 74.74846024299609, 2.701509985495431 79.4288207249596 M205.70259883354572 75.19469377236784 C163.1654719781849 79.89821054895218, 120.4064219803173 80.34476426007589, -1.3794832617527606 76.58740618249001 M0.0019784532487392426 76.29097926989198 C-2.6970153836083774 56.302248858470556, -0.7760996607613924 43.5521697226839, 1.8019570671021938 -1.7304139100015163 M-1.7150205355137587 75.03279271535575 C-2.337011617394892 54.560131916232784, -3.1341670572485603 33.587865938276806, 1.0653271097689867 0.40491565875709057" stroke="#c92a2a" stroke-width="1" fill="none"></path></g><g transform="translate(31.5234375 61.421875) rotate(0 87.5 25)"><text x="0" y="18" font-family="Virgil, Segoe UI Emoji" font-size="20px" fill="#c92a2a" text-anchor="start" style="white-space: pre;" direction="ltr">Webhook receives </text><text x="0" y="43" font-family="Virgil, Segoe UI Emoji" font-size="20px" fill="#c92a2a" text-anchor="start" style="white-space: pre;" direction="ltr">email</text></g><g><g transform="translate(223.33984375 91.9609375) rotate(0 51.807833741940556 -0.5749821577221184)"><path d="M1.1093377623707057 1.6431273963302369 C18.333422898625333 0.941505168502529, 88.3641858531783 -2.694186438495914, 105.34864200688898 -2.7930917117744682 M-1.73297452300787 0.06679988712072404 C15.172219247718653 -0.5332610812783238, 87.34210158656042 -0.017153684198856323, 104.5234449544549 -0.680009757578373" stroke="#c92a2a" stroke-width="1" fill="none"></path></g><g transform="translate(223.33984375 91.9609375) rotate(0 51.807833741940556 -0.5749821577221184)"><path d="M78.80987916157989 13.648590959263052 C82.79181196510437 6.151328640195878, 98.7082650471007 3.3427821756091456, 107.45692438647151 1.3056531162559986 M77.35851544344274 10.870552761134709 C87.58011339659697 6.256981025033896, 95.10071926327845 4.147479771346142, 106.36333498559893 0.6516835955530405" stroke="#c92a2a" stroke-width="1" fill="none"></path></g><g transform="translate(223.33984375 91.9609375) rotate(0 51.807833741940556 -0.5749821577221184)"><path d="M78.5544702727952 -6.871028157215923 C82.83894225573611 -6.745713965621072, 98.85029918008402 -1.92966010008025, 107.45692438647151 1.3056531162559986 M77.10310655465805 -9.649066355344265 C87.38362481952744 -7.117267172923798, 94.99319332385654 -2.079486087250661, 106.36333498559893 0.6516835955530405" stroke="#c92a2a" stroke-width="1" fill="none"></path></g></g><g transform="translate(344.376953125 49.88671875) rotate(0 108.28515625 45.435546875)"><path d="M1.639831042560038 2.316986265593438 C63.79078345178449 -3.307265567087625, 129.94421967132848 1.5173685675675233, 218.89373015311028 -3.193081287258363 M-1.4903447842694162 0.906329043517432 C72.51359981241278 -1.6370193582011725, 146.0085006197726 0.6698414463644775, 215.87153839335969 1.6828920041868476 M213.0749610699713 3.8911210857331753 C213.27258385331126 37.131187566294464, 218.42237926632853 64.51742943137724, 213.2078189887106 91.94681030139326 M216.6460012476891 1.5715397018939257 C217.23126031641738 24.016934597584985, 218.2182036209561 43.27879868578093, 218.12154063396153 90.20434820838271 M218.79388180459685 90.27462744531547 C159.38810840457145 88.54923445057489, 94.81934509770636 88.98859486691008, -2.3935204224493507 87.89041957239148 M215.71374906775944 89.81642577932712 C136.4749848881032 87.3830124381451, 55.474338551721516 87.09217371951276, -0.5767802892427724 91.17926504963837 M1.1352955140173435 92.7208508811891 C1.7783053586050663 61.605272858176235, 2.681724734024683 33.49793076655987, -2.0100371800363064 -2.504717532545328 M-1.3888065535575151 91.78994697518645 C3.450430972581889 68.21714705380181, 0.5391389560756941 40.75048917648454, -0.27594188041985035 0.009490253403782845" stroke="#c92a2a" stroke-width="1" fill="none"></path></g><g transform="translate(360.220703125 63.47265625) rotate(0 100 37.5)"><text x="0" y="18" font-family="Virgil, Segoe UI Emoji" font-size="20px" fill="#c92a2a" text-anchor="start" style="white-space: pre;" direction="ltr">check if that email</text><text x="0" y="43" font-family="Virgil, Segoe UI Emoji" font-size="20px" fill="#c92a2a" text-anchor="start" style="white-space: pre;" direction="ltr">exists in the USERS</text><text x="0" y="68" font-family="Virgil, Segoe UI Emoji" font-size="20px" fill="#c92a2a" text-anchor="start" style="white-space: pre;" direction="ltr">Collection</text></g><g><g transform="translate(572.84375 84.0625) rotate(0 44.747418634034716 -14.580351697914296)"><path d="M-1.0167919609695673 2.435252038016915 C14.450535870653896 -2.5638211347907784, 76.05030840119971 -21.867333033308388, 90.511629229039 -27.430485872253776 M3.6267110466957098 1.2889350485801696 C19.15017564777286 -3.318806492090225, 74.98702973384414 -26.565218287706372, 89.60423212789004 -31.595955433845518" stroke="#c92a2a" stroke-width="1" fill="none"></path></g><g transform="translate(572.84375 84.0625) rotate(0 44.747418634034716 -14.580351697914296)"><path d="M70.42153369937819 -8.436000229041728 C73.74998667655822 -19.360212657288187, 73.67435868922612 -23.461825533052536, 88.26703809864824 -35.288940964788196 M67.24219125625473 -10.475072241570505 C71.8034718584105 -18.845154621649645, 80.80027593747269 -22.25635835453224, 89.62173747748142 -30.595225308611987" stroke="#c92a2a" stroke-width="1" fill="none"></path></g><g transform="translate(572.84375 84.0625) rotate(0 44.747418634034716 -14.580351697914296)"><path d="M63.08720732570071 -27.601794212861396 C68.36650415540028 -34.29208903323925, 69.8907186053253 -34.21305204467701, 88.26703809864824 -35.288940964788196 M59.90786488257725 -29.640866225390173 C66.70630058249121 -32.28878855211865, 77.88422988650743 -30.00035545612897, 89.62173747748142 -30.595225308611987" stroke="#c92a2a" stroke-width="1" fill="none"></path></g></g><g transform="translate(670.0390625 10) rotate(0 69.94921875 26.521484375)"><path d="M-1.369514886289835 -3.853076096624136 C46.30774980845381 2.400049516523286, 90.59932953615645 -0.25931339565475353, 136.10261338576674 3.7741818465292454 M0.0889436025172472 1.3966371100395918 C41.40235681743143 -0.056053294078010296, 81.29914596313175 -0.30112750662912724, 138.55543321557343 -0.15981355495750904 M143.87992757186294 -1.4927411042153835 C139.29655663005812 23.18317298314468, 141.6119921588133 43.83370026020201, 138.976746853441 50.11376870051025 M138.24846404977143 -1.8684159833937883 C141.08852762479415 13.082068666887423, 139.80819309253326 21.437428118804377, 141.7413837928325 53.90347006730734 M139.74200659617782 53.966810349374995 C91.87952928336817 56.63810215714197, 41.04811505039251 50.02044914486628, 1.9746252857148647 50.18013549223541 M138.02222895808518 54.58044197969137 C96.68427252555483 51.607646639789, 55.75452112537313 52.859356637442964, -1.6817488055676222 53.346375195309506 M-3.122755352407694 50.51935267820953 C-0.7007167587083679 30.518332552160786, -2.175160075168024 13.1572088189343, 2.018489893525839 2.5256503857672215 M-0.42685884051024914 52.13987847976385 C-0.9467859412691177 33.31663528019379, -1.1027498985788406 12.001172155696985, 0.6696413774043322 0.2589286845177412" stroke="#c92a2a" stroke-width="1" fill="none"></path></g><g transform="translate(590.9375 36.3203125) rotate(0 15.85546875 17.52734375)"><path d="M26.374570006659674 4.913425084270463 C28.738650917776905 7.162081531048837, 30.938413888682533 12.346851294070884, 30.974911690924678 16.406681250893868 C31.011409493166823 20.466511207716852, 28.469721531587304 26.00162029496767, 26.593556820112557 29.272404825208362 C24.71739210863781 32.54318935544906, 22.508397072408282 35.488594557099454, 19.717923422076197 36.031388432338034 C16.92744977174411 36.57418230757661, 13.049766212799655 34.66764290628511, 9.850714918120048 32.529168076639856 C6.65166362344044 30.390693246994605, 2.1622865034207175 26.86076741358483, 0.5236156539985544 23.20053945446653 C-1.1150551954236085 19.540311495348227, -1.376192733449117 14.238181490075425, 0.018689821587070554 10.567800321930036 C1.4135723766232582 6.897419153784648, 5.725116673913485 2.786755090770942, 8.89291098421568 1.178252445594195 C12.060705294517875 -0.4302501995825523, 15.309259642504005 -0.6943170233890967, 19.02545568340024 0.9167844508695531 C22.74165172429647 2.527885925128203, 28.841442899598334 7.590313548119035, 31.19008722959308 10.844861291146094 C33.53873155958782 14.099409034173153, 33.693893529285916 20.077092084237954, 33.1173216633687 20.444070909031904 M28.68945107772279 10.656160833464211 C31.490187033832385 13.29419218115831, 34.51650089964947 15.907599447499333, 34.579231073816445 19.50098135997808 C34.64196124798342 23.094363272456828, 32.33823841351365 29.60252666469769, 29.06583212272461 32.2164523083367 C25.793425831935576 34.830377951975706, 19.209473534687785 34.81778760484626, 14.944793329082229 35.18453522181213 C10.680113123476673 35.55128283877801, 5.449620521587404 36.58496847219075, 3.4777508890912756 34.41693801013194 C1.5058812565951472 32.248907548073134, 3.8393220676742668 26.111735742044292, 3.1135755341054576 22.176352449459298 C2.3878290005366485 18.240969156874304, -1.893037163094909 14.14800190794654, -0.8767283123215801 10.80463825462197 C0.13958053845174878 7.461274601297401, 6.1136281713430165 3.6859530047216316, 9.211428638745431 2.11617052951188 C12.309229106147846 0.5463880543021282, 14.541919296662291 0.8800317007771076, 17.710074492092907 1.3859434033634592 C20.878229687523522 1.8918551059498108, 26.64263043119493 4.352783124322316, 28.220359811329125 5.15164074502999 C29.79808919146332 5.950498365737665, 27.32035459073601 5.593077909410017, 27.176450772898065 6.179089127609505" stroke="#c92a2a" stroke-width="1" fill="none"></path></g><g transform="translate(602.046875 41.34375) rotate(0 5 12.5)"><text x="5" y="18" font-family="Virgil, Segoe UI Emoji" font-size="20px" fill="#c92a2a" text-anchor="middle" style="white-space: pre;" direction="ltr">Y</text></g><g transform="translate(669.37890625 20.314453125) rotate(0 70.5 12.5)"><text x="70.5" y="18" font-family="Virgil, Segoe UI Emoji" font-size="20px" fill="#c92a2a" text-anchor="middle" style="white-space: pre;" direction="ltr">get user data</text></g><g><g transform="translate(576.192357893847 91.99730386994776) rotate(0 34.132562914751475 20.478576975651094)"><path d="M-0.6992660488933327 2.5285538699477907 C10.141520255059017 8.498216192908586, 52.85673466995366 30.24250786149254, 63.52659316323707 36.02248805046082 M4.116608168184758 1.4328864464163784 C16.001016025717078 7.8452282945935945, 58.137838329946085 34.39727935543905, 68.96439187839637 39.5242675048858" stroke="#c92a2a" stroke-width="1" fill="none"></path></g><g transform="translate(576.192357893847 91.99730386994776) rotate(0 34.132562914751475 20.478576975651094)"><path d="M42.97038956427723 32.1421683898415 C46.306237765815375 33.185495777170146, 55.277102340574714 39.583934172669665, 66.69818192213783 39.30346894912422 M38.79257802547663 33.0013789462145 C45.26846609515404 34.24883295459767, 52.63221292499263 36.002903358090926, 70.0246061874182 41.1291782976687" stroke="#c92a2a" stroke-width="1" fill="none"></path></g><g transform="translate(576.192357893847 91.99730386994776) rotate(0 34.132562914751475 20.478576975651094)"><path d="M53.011075600317824 14.245112031001398 C53.905255605316675 19.637049726738407, 60.408307693528855 30.434249222450582, 66.69818192213783 39.30346894912422 M48.83326406151723 15.104322587374398 C52.89746786047012 20.679876691008744, 57.79298442388188 26.833452867939698, 70.0246061874182 41.1291782976687" stroke="#c92a2a" stroke-width="1" fill="none"></path></g></g><g transform="translate(571.5283426927404 109.2421875) rotate(0 15.85546875 17.52734375)"><path d="M15.714024452127477 -1.0714283593068856 C19.13072550307293 -1.8872563916778176, 22.251813535550827 -0.1146524135777347, 24.882857837942005 2.1200055603211165 C27.513902140333183 4.354663534219968, 30.70788653255149 8.804893247555283, 31.500290266474536 12.336519484086223 C32.29269400039758 15.868145720617163, 31.366462220448327 20.09833986922536, 29.637280241480266 23.309762979506758 C27.908098262512205 26.521186089788156, 24.330837714288986 29.961168546030805, 21.125198392666167 31.605058145774606 C17.91955907104335 33.24894774551841, 13.274769713177006 33.58438280455035, 10.40344431174336 33.17310057796956 C7.532118910309714 32.76181835138876, 5.8454980468310245 32.00761108841271, 3.897245984064286 29.13736478628985 C1.9489939212975471 26.267118484166993, -1.597337134578776 20.170412466452525, -1.2860680648570728 15.951622765232411 C-0.9747989951353697 11.732833064012297, 2.046277452664949 6.402498771860412, 5.764860402394504 3.8246265789691627 C9.483443352124059 1.2467543860779142, 18.278148026755982 0.7242362516992596, 21.025429633520258 0.48438960788492125 C23.772711240284533 0.24454296407058282, 22.300394722281755 1.976315241135591, 22.248550042980156 2.385546716083132 M26.35518093037112 4.865137448963395 C27.64099060785729 8.600421248918217, 30.048982465513006 18.21781958851424, 30.189920721032856 21.975088879918403 C30.330858976552705 25.732358171322566, 29.19716777619994 25.052980174972394, 27.200810463490225 27.40875319738838 C25.20445315078051 29.764526219804363, 21.420514276659976 35.392101230965736, 18.211776844774562 36.10972701441432 C15.003039412889148 36.8273527978629, 10.522029066091504 34.36584508341204, 7.948385872177738 31.714507898079887 C5.3747426782639725 29.063170712747734, 4.211918796025465 23.362552355101, 2.76991768129197 20.201703902421393 C1.327916566558475 17.040855449741787, -1.4081237098186508 15.425475215378915, -0.703620816223232 12.74941718200225 C0.000882077372186707 10.073359148625586, 3.3202683828118627 5.975021620803993, 6.996935042864482 4.14535570216141 C10.673601702917102 2.3156897835188275, 17.27288731072543 0.7317088900391553, 21.356379144092486 1.7714216701467542 C25.43987097745954 2.811134450254353, 30.286480391430278 8.998410965053521, 31.497886043066813 10.383632382807004 C32.70929169470335 11.768853800560487, 29.053466235644443 10.096004514323976, 28.62481305391171 10.082750176667655" stroke="#c92a2a" stroke-width="1" fill="none"></path></g><g transform="translate(581.3838114427404 114.26953125) rotate(0 6 12.5)"><text x="6" y="18" font-family="Virgil, Segoe UI Emoji" font-size="20px" fill="#c92a2a" text-anchor="middle" style="white-space: pre;" direction="ltr">N</text></g><g transform="translate(649.4765625 108.115234375) rotate(0 76.072265625 54.041015625)"><path d="M-0.7281457148492336 3.6781985126435757 C40.81339693498265 -1.482252985624001, 84.2596064854493 3.2282097037757183, 154.16263151541347 -0.2820882238447666 M-1.1317323166877031 -1.8506588321179152 C41.90193261886196 2.9014968922660764, 86.83735956307862 1.094730322651666, 150.44397339038545 0.37155854888260365 M155.28462458029384 -0.5548533834517002 C152.2382275588662 27.653289733266508, 150.14253575874872 56.2516267891937, 151.67711460962886 105.41338389739394 M152.21864732913667 1.6572560090571642 C152.43611041049897 26.011674066081834, 151.1370143626207 51.62012235076764, 152.24427178315813 106.65730732865632 M153.2706347741186 106.22524398192763 C115.97698039675193 111.50018914376233, 76.62046362314501 113.4075893941972, 2.9720885790884495 109.76983242854476 M152.16623881272966 107.92779177613556 C105.77544823593739 109.6657521295295, 60.51823119124961 111.11104168174126, 0.09655496291816235 108.8866462726146 M-3.3466532193124294 105.78448181971908 C-1.2941576427492691 74.29854623268075, -2.731196183589418 44.9008026317264, 3.232734087854624 -0.692845169454813 M1.771772114560008 109.29377317614853 C-1.3054311352871446 65.07436610345431, 0.29667597235216814 22.043193359983704, 0.4580372851341963 1.917790712788701" stroke="#c92a2a" stroke-width="1" fill="none"></path></g><g transform="translate(652.029296875 107.8515625) rotate(0 67.5 48)"><text x="67.5" y="17" font-family="Virgil, Segoe UI Emoji" font-size="19.009374999999995px" fill="#c92a2a" text-anchor="middle" style="white-space: pre;" direction="ltr">create user </text><text x="67.5" y="41" font-family="Virgil, Segoe UI Emoji" font-size="19.009374999999995px" fill="#c92a2a" text-anchor="middle" style="white-space: pre;" direction="ltr">record.</text><text x="67.5" y="65" font-family="Virgil, Segoe UI Emoji" font-size="19.009374999999995px" fill="#c92a2a" text-anchor="middle" style="white-space: pre;" direction="ltr"></text><text x="67.5" y="89" font-family="Virgil, Segoe UI Emoji" font-size="19.009374999999995px" fill="#c92a2a" text-anchor="middle" style="white-space: pre;" direction="ltr">Email is doc id</text></g><g><g transform="translate(815.02734375 33.13671875) rotate(0 56.86764002922928 26.520978816971187)"><path d="M2.2352739129215475 -1.8929493639618156 C21.19173591074844 7.417871696377794, 94.86438500421743 45.46382503770292, 113.73109594918787 54.93490699790418 M0.004184109270572556 3.2511385998129843 C18.646324799756208 11.931466323633988, 92.69166480054457 43.44687354574601, 111.84119532257318 51.381759680211545" stroke="#c92a2a" stroke-width="1" fill="none"></path></g><g transform="translate(815.02734375 33.13671875) rotate(0 56.86764002922928 26.520978816971187)"><path d="M79.17415889589246 50.80477199497503 C94.6846680733136 53.20880714290991, 103.66335142433897 47.55540453028763, 114.5528865866363 51.43076727107167 M82.00688009387012 49.089719574701604 C89.62868370958677 50.14348473567494, 97.25470280933408 51.31157271523986, 110.53678191266954 50.04205022133887" stroke="#c92a2a" stroke-width="1" fill="none"></path></g><g transform="translate(815.02734375 33.13671875) rotate(0 56.86764002922928 26.520978816971187)"><path d="M87.14384976651657 31.89435079891146 C100.1400146852117 40.09357413823747, 106.7299756196272 40.10811370202663, 114.5528865866363 51.43076727107167 M89.97657096449423 30.179298378638038 C95.48674202390816 35.85039368074766, 101.19098604766512 41.578454778596, 110.53678191266954 50.04205022133887" stroke="#c92a2a" stroke-width="1" fill="none"></path></g></g><g><g transform="translate(796.4921875 129.38671875) rotate(0 65.31118710972373 -19.126567168869087)"><path d="M-2.6245136346668003 0.9023409988731146 C19.813942864909762 -5.358499190583825, 110.34153771338362 -29.00569350856046, 133.24688785411416 -35.04358155466616 M1.1462261787056924 -1.0761276975274088 C23.346115231414633 -6.932862300773462, 108.93834177802006 -32.650022776822254, 131.06444390445947 -39.155475336611275" stroke="#c92a2a" stroke-width="1" fill="none"></path></g><g transform="translate(796.4921875 129.38671875) rotate(0 65.31118710972373 -19.126567168869087)"><path d="M108.25106581883587 -21.146649698743392 C115.04500030054534 -22.941194879868846, 120.68250224550528 -32.75380397472925, 127.28407462641596 -41.36089577481151 M108.3410209345267 -22.92326018681543 C112.32251699971857 -26.659873241055266, 120.06550779483466 -31.200337193442298, 130.98754708610474 -39.04179413758219" stroke="#c92a2a" stroke-width="1" fill="none"></path></g><g transform="translate(796.4921875 129.38671875) rotate(0 65.31118710972373 -19.126567168869087)"><path d="M102.40810561928579 -40.81845232311703 C111.02044758557875 -37.57416603161948, 118.1220594778084 -42.45747885893212, 127.28407462641596 -41.36089577481151 M102.49806073497662 -42.59506281118907 C108.35407808562859 -41.38445951363492, 117.57972406834577 -40.933189958623004, 130.98754708610474 -39.04179413758219" stroke="#c92a2a" stroke-width="1" fill="none"></path></g></g><g transform="translate(943.12890625 22.46484375) rotate(0 87.71484375 74.22265625)"><path d="M2.013755325227976 -2.0166959203779697 C40.94935026708481 3.0440218100753555, 92.01190214863891 3.618669832727028, 172.52004540339112 -3.3336454071104527 M-0.721120985224843 -1.2310777883976698 C58.30136843448782 -0.8461917823493419, 120.80881078083623 -1.2474350517928539, 176.51005461625755 -1.5989311318844557 M173.94437611475587 -1.4658771194517612 C177.1289955523041 61.50543925472812, 176.2331442978409 117.21301890405448, 178.44810653105378 146.55036049708724 M175.48731949739158 1.9541460890322924 C178.10208156038877 47.62368652836376, 178.98800786663648 95.57051158988762, 176.59340163879097 150.0905060786754 M176.2648627795279 151.19123059138656 C126.56314644436861 145.2251339109651, 88.40367025203157 144.54383863527693, -3.672809239476919 146.27051370963454 M175.4840728919953 149.68256950564682 C138.71537280241682 146.5885838100534, 103.15953091291158 147.89044646712355, -1.3633686024695635 149.27950269170105 M0.9963334836065769 146.45889967307448 C-0.31332923165420645 108.40244001052997, -1.9843651174650585 71.27242917000694, -0.8645524941384792 3.186555441468954 M-0.12520894594490528 148.48428279347718 C-1.3350218980746282 97.02532604260414, -1.836832865996839 41.344264265485975, -1.1003073770552874 -0.9373978357762098" stroke="#c92a2a" stroke-width="1" fill="none"></path></g><g transform="translate(962.6171875 36.4765625) rotate(0 70 62.5)"><text x="0" y="18" font-family="Virgil, Segoe UI Emoji" font-size="20px" fill="#c92a2a" text-anchor="start" style="white-space: pre;" direction="ltr">extract links </text><text x="0" y="43" font-family="Virgil, Segoe UI Emoji" font-size="20px" fill="#c92a2a" text-anchor="start" style="white-space: pre;" direction="ltr">from email.</text><text x="0" y="68" font-family="Virgil, Segoe UI Emoji" font-size="20px" fill="#c92a2a" text-anchor="start" style="white-space: pre;" direction="ltr"></text><text x="0" y="93" font-family="Virgil, Segoe UI Emoji" font-size="20px" fill="#c92a2a" text-anchor="start" style="white-space: pre;" direction="ltr">create array</text><text x="0" y="118" font-family="Virgil, Segoe UI Emoji" font-size="20px" fill="#c92a2a" text-anchor="start" style="white-space: pre;" direction="ltr">of links</text></g><g><g transform="translate(1052.81640625 180.13671875) rotate(0 -137.4423878655582 66.75574380278587)"><path d="M-0.6607623670250176 1.9397813353687523 C-47.634266468820464 23.505954761281608, -232.99764810322472 108.57509854373833, -279.0607895798981 130.1222159037739 M4.1760138487815865 0.5244945359230044 C-42.20058370308329 22.380072993834812, -226.76371043703207 110.71351666251819, -273.9698856256157 132.98699306964875" stroke="#c92a2a" stroke-width="1" fill="none"></path></g><g transform="translate(1052.81640625 180.13671875) rotate(0 -137.4423878655582 66.75574380278587)"><path d="M-250.146957095194 108.16338800629094 C-263.22521332192 119.48568982768326, -270.0592642534063 129.0391902966299, -274.8015656291693 130.96154153242708 M-253.2329022190006 110.50631673810497 C-256.39429037608795 114.89542600906249, -263.66287689375866 119.96813580206589, -274.8851023080945 134.56251313619316" stroke="#c92a2a" stroke-width="1" fill="none"></path></g><g transform="translate(1052.81640625 180.13671875) rotate(0 -137.4423878655582 66.75574380278587)"><path d="M-241.33360436871726 126.69565219889688 C-258.02697427830503 130.57653345995382, -268.3801450273631 132.73021002434345, -274.8015656291693 130.96154153242708 M-244.41954949252386 129.0385809307109 C-249.64569682048293 128.97178648835535, -258.99177714845956 129.67604929574895, -274.8851023080945 134.56251313619316" stroke="#c92a2a" stroke-width="1" fill="none"></path></g></g><g transform="translate(478.95703125 314.41796875) rotate(0 140.009765625 131.048828125)"><path d="M-2.372537556438896 -1.2348367369553643 C77.27838526405854 -4.624916100111359, 161.61147311401376 -3.3303647606580133, 278.69907544357244 -1.7442390015781524 M0.8003103023602282 1.4001410430735586 C90.9464260071204 -0.27523646849365974, 183.5051915303781 0.560066131266847, 279.3202837130523 1.4408559956033888 M277.7038800501035 0.9342000855227356 C278.505168814473 71.45130476939693, 274.2791483588324 149.00655168429347, 282.2386823497163 260.76149650791564 M278.9654410325833 -0.323261602174227 C283.5612289102751 55.61674458106007, 283.1701066875965 110.51699762114202, 279.915426221153 260.9742131322567 M281.15252150203486 260.54197384902716 C192.25956040896423 261.956099468659, 104.0681097886249 265.5977647682718, -0.5180507662200651 264.7441759162378 M279.3906043810203 263.4939878869709 C212.2814648682761 265.3344233348714, 144.52204780799875 264.7551567816515, 0.632607195867373 263.570166276464 M-3.0031170274194063 262.4794170753352 C3.4686678455218924 174.36153294182776, 4.801339633071734 85.33673428355237, -0.17948601770548187 1.6199763386842774 M-1.473793116684691 261.2971653257853 C1.5369830016609403 205.74147396590303, -0.8378421310681623 148.38796382830944, 0.27951912012088637 0.471973386556942" stroke="#c92a2a" stroke-width="1" fill="none"></path></g><g transform="translate(514.98046875 342.671875) rotate(0 116 100)"><text x="0" y="18" font-family="Virgil, Segoe UI Emoji" font-size="20px" fill="#c92a2a" text-anchor="start" style="white-space: pre;" direction="ltr">Each link is saved as </text><text x="0" y="43" font-family="Virgil, Segoe UI Emoji" font-size="20px" fill="#c92a2a" text-anchor="start" style="white-space: pre;" direction="ltr">indiv record in </text><text x="0" y="68" font-family="Virgil, Segoe UI Emoji" font-size="20px" fill="#c92a2a" text-anchor="start" style="white-space: pre;" direction="ltr">LINKS collection, with </text><text x="0" y="93" font-family="Virgil, Segoe UI Emoji" font-size="20px" fill="#c92a2a" text-anchor="start" style="white-space: pre;" direction="ltr">generated docId</text><text x="0" y="118" font-family="Virgil, Segoe UI Emoji" font-size="20px" fill="#c92a2a" text-anchor="start" style="white-space: pre;" direction="ltr"></text><text x="0" y="143" font-family="Virgil, Segoe UI Emoji" font-size="20px" fill="#c92a2a" text-anchor="start" style="white-space: pre;" direction="ltr">Link must have the </text><text x="0" y="168" font-family="Virgil, Segoe UI Emoji" font-size="20px" fill="#c92a2a" text-anchor="start" style="white-space: pre;" direction="ltr">calculated due date  &amp;</text><text x="0" y="193" font-family="Virgil, Segoe UI Emoji" font-size="20px" fill="#c92a2a" text-anchor="start" style="white-space: pre;" direction="ltr">user email</text></g><g><g transform="translate(761.91015625 426.51171875) rotate(0 58.05894102789466 1.790013751015067)"><path d="M0.28682995177805415 2.368602278456092 C19.707272815083464 2.115275643890103, 96.33681048887472 1.6585355546325444, 115.83105210401118 1.2114252235740421" stroke="#c92a2a" stroke-width="1.5" fill="none" stroke-dasharray="12 8"></path></g></g><g transform="translate(906.51171875 397.94921875) rotate(0 201.9765625 89.404296875)"><path d="M-0.7755802171249919 -1.486056640487885 C147.12074727367533 2.125756242042389, 296.0482171655658 0.6186447089735976, 403.5243058731749 -1.0066119738411414 M403.9178103245795 -0.6746972240507603 C406.46639360354857 72.58602946696375, 407.3056574003549 142.90748232374975, 403.634698394686 176.03792863711718 M402.6336124583725 179.6142774982486 C268.95161460535013 184.18154565542895, 134.78003715687782 184.79136826904687, -0.23549908679068174 177.29817992700143 M0.33725786581635475 178.58303457126024 C3.3434955535794875 115.85038671098847, 7.057679241743244 48.95519841492569, -2.5281256400048733 -3.152768675237894" stroke="#c92a2a" stroke-width="1.5" fill="none" stroke-dasharray="12 8"></path></g><g transform="translate(923.41796875 407.83203125) rotate(0 188 75)"><text x="0" y="18" font-family="Virgil, Segoe UI Emoji" font-size="20px" fill="#c92a2a" text-anchor="start" style="white-space: pre;" direction="ltr">Link has props like tags &amp; CC. </text><text x="0" y="43" font-family="Virgil, Segoe UI Emoji" font-size="20px" fill="#c92a2a" text-anchor="start" style="white-space: pre;" direction="ltr">Future state stuff.</text><text x="0" y="68" font-family="Virgil, Segoe UI Emoji" font-size="20px" fill="#c92a2a" text-anchor="start" style="white-space: pre;" direction="ltr">Tags is from subject line, in case we </text><text x="0" y="93" font-family="Virgil, Segoe UI Emoji" font-size="20px" fill="#c92a2a" text-anchor="start" style="white-space: pre;" direction="ltr">want to tag links</text><text x="0" y="118" font-family="Virgil, Segoe UI Emoji" font-size="20px" fill="#c92a2a" text-anchor="start" style="white-space: pre;" direction="ltr">CC is others that they want the link</text><text x="0" y="143" font-family="Virgil, Segoe UI Emoji" font-size="20px" fill="#c92a2a" text-anchor="start" style="white-space: pre;" direction="ltr">sent to.</text></g><g stroke-opacity="0.9" fill-opacity="0.9" transform="translate(36.03515625 671.27734375) rotate(0 234.5 12)"><text x="0" y="19" font-family="Cascadia, Segoe UI Emoji" font-size="20px" fill="#495057" text-anchor="start" style="white-space: pre;" direction="ltr">* Data models are in the /db/models file</text></g></svg>